<svg id="Capa_1" enable-background="new 0 0 512 512" height="512" viewBox="0 0 512 512" width="512" xmlns="http://www.w3.org/2000/svg"><path d="m482 304.471c-26.77 0-48.471-21.701-48.471-48.471s21.701-48.471 48.471-48.471h30v96.942z" fill="#ff5b5b"/><path d="m482 304.471c-26.77 0-48.471-21.701-48.471-48.471l78.471.374v48.097z" fill="#c50048"/><path d="m315.667 241h72.862v30h-72.862z" fill="#ff5b5b"/><path d="m315.667 256h72.862v15h-72.862z" fill="#c50048"/><path d="m375.145 127.714h30v72.862h-30z" fill="#ff5b5b" transform="matrix(.707 -.707 .707 .707 -1.797 323.951)"/><path d="m353.714 332.855h72.862v30h-72.862z" fill="#c50048" transform="matrix(.707 -.707 .707 .707 -131.7 377.759)"/><path d="m234.129 393.667s35.154-61.019 35.154-136.289-35.154-136.289-35.154-136.289l-226.33 134.911z" fill="#fff5f5"/><path d="m234.129 393.667s35.154-61.019 35.154-136.289c0-.46-.001-.919-.004-1.378h-261.48z" fill="#ebe1dc"/><path d="m234.129 392.289s35.154-61.019 35.154-136.289-35.154-136.289-35.154-136.289l-116.479 67.624c-7.573 20.951-11.701 43.549-11.701 67.112 0 23.562 4.128 46.16 11.7 67.109z" fill="#beebfa"/><path d="m105.956 256c.177 23.002 4.289 45.067 11.694 65.557l116.48 70.733s35.154-61.019 35.154-136.289h-163.328z" fill="#b3d8f4"/><path d="m269.283 256c0-26.235-4.272-50.733-9.836-71.525-26.244.007-47.518 32.027-47.518 71.525s21.274 71.518 47.518 71.525c5.564-20.792 9.836-45.29 9.836-71.525z" fill="#5a5555"/><path d="m269.283 256h-57.354c0 39.498 21.274 71.518 47.518 71.525 5.564-20.792 9.836-45.29 9.836-71.525z" fill="#464141"/><path d="m256.001 424.597-256-155.783v-25.628l256-155.783 15.596 25.628-234.943 142.969 234.943 142.969z" fill="#5a5555"/><path d="m256.001 424.597-256-155.783-.001-12.814h36.654l234.943 142.969z" fill="#464141"/></svg>